<?xml version="1.0" encoding="utf-8"?>
<!-- Generator: Adobe Illustrator 23.0.1, SVG Export Plug-In . SVG Version: 6.00 Build 0)  -->
<svg version="1.1" id="Layer_1" xmlns="http://www.w3.org/2000/svg" xmlns:xlink="http://www.w3.org/1999/xlink" x="0px" y="0px"
	 viewBox="0 0 546.82 386.64" style="enable-background:new 0 0 546.82 386.64;" xml:space="preserve">
<style type="text/css">
	.st0{fill:#F8F7F7;}
	.st1{fill:none;}
	.st2{fill:#FFFFFF;}
	.st3{fill:#00A0DF;}
	.st4{fill:#00416B;}
	.st5{fill:#BDBCBC;}
</style>
<g>
	<path class="st0" d="M191.92,258.01c-24.17,0-43.76-25.46-43.76-56.86c0-31.4,19.59-56.86,43.76-56.86
		c24.17,0,43.76,25.46,43.76,56.86C235.68,232.56,216.09,258.01,191.92,258.01z"/>
	<g>
		<path class="st1" d="M229.33,211.31c-1.84,3.11-4.28,5.7-7,8.04c-2.79,2.39-5.78,4.48-9.13,6.02c-5.31,2.44-10.82,2.89-16.46,1.5
			c-2.69-0.66-5.33-1.53-7.98-2.33c-2.59-0.78-5.16-1.61-7.86-1.92c-4.21-0.49-8.12,0.38-11.69,2.69c-3.39,2.19-6.04,5.13-8.47,8.31
			c-0.94,1.23-1.76,2.53-2.48,3.87c2.13,3.32,4.54,6.32,7.19,8.95c0.78-0.98,1.63-1.91,2.61-2.73c2.54-2.14,5.48-3.24,8.77-3.43
			c0.48-0.03,0.95,0,1.43,0c0-0.04,0.01-0.09,0.01-0.13c2.27,0.22,4.54,0.43,6.81,0.65c4.08,0.4,8.16,0.79,12.27,0.75
			c6.32-0.07,12.18-1.73,17.52-5.12c6.58-4.17,11.94-9.59,16.18-16.11c1.24-1.91,2.37-3.88,3.42-5.89
			c0.78-4.26,1.21-8.69,1.21-13.26c0-1.04-0.03-2.08-0.07-3.11c-0.04,0.1-0.07,0.2-0.11,0.31
			C233.78,202.83,231.78,207.18,229.33,211.31z"/>
		<path class="st1" d="M200.91,256.81c-1.53,0.36-3.08,0.66-4.63,0.92C197.85,257.53,199.39,257.22,200.91,256.81z"/>
		<path class="st1" d="M225.1,178.45c-1.26,3.32-3.33,6.17-5.6,8.88c-2,2.4-4.22,4.57-6.84,6.3c-3.22,2.14-6.76,3.25-10.65,3.19
			c-2.37-0.04-4.67-0.49-6.93-1.16c-3.42-1.01-6.81-2.14-10.25-3.07c-4.32-1.17-8.69-1.32-13.04-0.08
			c-2.41,0.69-4.67,1.72-6.81,3.03c-2.66,1.63-5.07,3.59-7.34,5.73c-2.63,2.48-4.61,5.42-6.28,8.61c-0.73,1.39-1.41,2.8-2.06,4.23
			c0.67,3.71,1.61,7.28,2.81,10.68c0.32-0.71,0.65-1.42,0.99-2.12c1.88-3.9,4.62-7.14,7.8-10.02c2.32-2.09,4.8-3.95,7.63-5.31
			c4.13-1.99,8.45-2.58,12.96-1.76c3.13,0.57,6.09,1.66,9.06,2.77c3.25,1.21,6.48,2.43,9.94,2.91c4.29,0.59,8.37-0.1,12.16-2.16
			c4.96-2.7,9.02-6.43,12.2-11.09c1.66-2.43,2.79-5.15,3.88-7.87c1.44-3.6,2.61-7.27,3.52-11.01c-1.14-3.52-2.55-6.85-4.18-9.97
			c-0.12,0.45-0.24,0.91-0.36,1.36C226.97,173.19,226.08,175.85,225.1,178.45z"/>
		<path class="st1" d="M210.5,151.78c-2.09,3.4-4.98,5.79-8.88,6.74c-2.57,0.63-5.2,1.01-7.81,1.44c-4.74,0.79-9.51,1.41-14.17,2.6
			c-4.47,1.14-8.66,2.93-12.58,5.35c-4.99,3.08-9.31,6.94-13.24,11.26c-1.18,1.3-2.32,2.64-3.42,4.01
			c-1.17,4.57-1.91,9.39-2.15,14.39c3.49-5.47,7.88-10.13,12.96-14.16c3.53-2.8,7.39-5.02,11.68-6.44
			c3.87-1.28,7.85-1.88,11.91-1.66c4.66,0.26,9.3,0.72,13.95,1.1c2.38,0.2,4.76,0.35,7.13-0.1c3.2-0.6,5.79-2.25,7.91-4.68
			c2.44-2.79,4.12-6.02,5.45-9.45c0.52-1.34,0.92-2.71,1.25-4.09c-2.76-3.1-5.83-5.76-9.13-7.89
			C211.09,150.75,210.81,151.27,210.5,151.78z"/>
		<path class="st2" d="M185.08,240.79c-2.27-0.22-4.54-0.44-6.81-0.65c0,0.04-0.01,0.09-0.01,0.13c0-0.04,0.01,0.04,0.01,0
			C180.54,240.48,182.81,240.56,185.08,240.79z"/>
		<path class="st3" d="M224.86,198c-3.18,4.66-7.24,8.4-12.2,11.09c-3.79,2.06-7.87,2.75-12.16,2.16c-3.46-0.48-6.7-1.7-9.94-2.91
			c-2.96-1.1-5.93-2.2-9.06-2.77c-4.51-0.82-8.83-0.23-12.96,1.76c-2.82,1.36-5.31,3.22-7.63,5.31c-3.19,2.88-5.92,6.12-7.8,10.02
			c-0.34,0.7-0.67,1.41-0.99,2.12c1.62,4.59,3.68,8.86,6.14,12.69c0.72-1.34,1.53-2.63,2.48-3.87c2.43-3.18,5.08-6.12,8.47-8.31
			c3.57-2.31,7.47-3.17,11.69-2.69c2.7,0.31,5.28,1.14,7.86,1.92c2.66,0.8,5.3,1.66,7.98,2.33c5.64,1.39,11.15,0.94,16.46-1.5
			c3.35-1.54,6.34-3.63,9.13-6.02c2.72-2.34,5.16-4.93,7-8.04c2.45-4.13,4.45-8.48,6.17-12.96c0.04-0.1,0.07-0.2,0.11-0.31
			c-0.28-6.68-1.44-13.06-3.35-18.94c-0.91,3.74-2.08,7.42-3.52,11.01C227.65,192.85,226.52,195.56,224.86,198z"/>
		<path class="st4" d="M213.79,171.66c-2.12,2.43-4.71,4.08-7.91,4.68c-2.37,0.44-4.75,0.29-7.13,0.1
			c-4.65-0.38-9.29-0.84-13.95-1.1c-4.06-0.23-8.04,0.37-11.91,1.66c-4.29,1.43-8.15,3.64-11.68,6.44
			c-5.08,4.03-9.47,8.68-12.96,14.16c-0.06,1.18-0.09,2.37-0.09,3.57c0,4.46,0.41,8.79,1.15,12.95c0.65-1.42,1.33-2.84,2.06-4.23
			c1.67-3.19,3.65-6.12,6.28-8.61c2.27-2.14,4.67-4.1,7.34-5.73c2.13-1.31,4.39-2.34,6.81-3.03c4.35-1.24,8.72-1.09,13.04,0.08
			c3.44,0.93,6.83,2.06,10.25,3.07c2.26,0.67,4.57,1.11,6.93,1.16c3.88,0.07,7.42-1.05,10.65-3.19c2.61-1.73,4.83-3.91,6.84-6.3
			c2.27-2.71,4.34-5.56,5.6-8.88c0.99-2.61,1.88-5.26,2.62-7.94c0.13-0.45,0.24-0.91,0.36-1.36c-2.15-4.09-4.71-7.8-7.59-11.03
			c-0.33,1.38-0.73,2.75-1.25,4.09C217.92,165.64,216.23,168.87,213.79,171.66z"/>
		<path class="st4" d="M214.87,236.42c-5.34,3.39-11.2,5.06-17.52,5.12c-4.11,0.04-8.19-0.35-12.27-0.75
			c-2.27-0.22-4.54-0.31-6.81-0.52c0,0.04-0.01-0.04-0.01,0c-0.48,0-0.96-0.02-1.43,0c-3.3,0.18-6.24,1.28-8.77,3.43
			c-0.97,0.82-1.83,1.75-2.61,2.73c7.35,7.27,16.52,11.59,26.47,11.59c1.47,0,2.92-0.1,4.36-0.28c1.55-0.27,3.1-0.56,4.63-0.92
			c16.54-4.49,29.65-21.12,33.56-42.39c-1.04,2.01-2.18,3.98-3.42,5.89C226.81,226.82,221.45,232.24,214.87,236.42z"/>
		<path class="st3" d="M167.06,167.92c3.92-2.43,8.11-4.22,12.58-5.35c4.66-1.19,9.43-1.82,14.17-2.6c2.61-0.43,5.24-0.82,7.81-1.44
			c3.9-0.95,6.79-3.34,8.88-6.74c0.31-0.51,0.6-1.03,0.86-1.55c-5.86-3.78-12.46-5.92-19.45-5.92c-19.33,0-35.73,16.3-41.52,38.89
			c1.1-1.37,2.23-2.71,3.42-4.01C157.75,174.86,162.07,171.01,167.06,167.92z"/>
	</g>
</g>
<g>
	<g>
		<path class="st0" d="M349.79,215.92c-24.17,0-43.76-6.74-43.76-15.04c0,31.4,19.59,56.86,43.76,56.86
			c24.17,0,43.76-25.46,43.76-56.86C393.55,209.18,373.96,215.92,349.79,215.92z"/>
	</g>
	<path class="st4" d="M372.75,236.13c-5.34,3.39-11.2,5.06-17.52,5.12c-4.11,0.04-8.19-0.35-12.27-0.75
		c-2.27-0.22-4.54-0.31-6.81-0.52c0,0.04-0.01-0.04-0.01,0c-0.48,0-0.96-0.02-1.43,0c-3.3,0.18-6.24,1.28-8.77,3.43
		c-0.97,0.82-1.83,1.75-2.61,2.73c7.35,7.27,16.52,11.59,26.47,11.59c1.47,0,2.92-0.1,4.36-0.28c1.55-0.27,3.1-0.56,4.63-0.92
		c16.54-4.49,29.65-21.12,33.56-42.39c-1.04,2.01-2.18,3.98-3.42,5.89C384.69,226.54,379.33,231.96,372.75,236.13z"/>
	<g>
		<path class="st3" d="M349.79,215.92c-11.75,0-22.41-1.6-30.27-4.19c-0.24,0.21-0.49,0.41-0.73,0.63
			c-3.19,2.88-5.92,6.12-7.8,10.02c-0.34,0.7-0.67,1.41-0.99,2.12c1.62,4.59,3.68,8.86,6.14,12.69c0.72-1.34,1.53-2.63,2.48-3.87
			c2.43-3.18,5.08-6.12,8.47-8.31c3.57-2.31,7.47-3.17,11.69-2.69c2.7,0.31,5.28,1.14,7.86,1.92c2.66,0.8,5.3,1.66,7.98,2.33
			c5.64,1.39,11.15,0.94,16.46-1.5c3.35-1.54,6.34-3.63,9.13-6.02c2.72-2.34,5.16-4.93,7-8.04c0.7-1.18,1.35-2.39,1.98-3.6
			C382.11,212.45,367.13,215.92,349.79,215.92z"/>
	</g>
	<path class="st5" d="M349.79,215.92c-24.17,0-43.76-6.74-43.76-15.04c0-8.31,19.59-15.04,43.76-15.04
		c24.17,0,43.76,6.74,43.76,15.04C393.55,209.18,373.96,215.92,349.79,215.92z"/>
</g>
<g>
	<g>
		<g>
			<path class="st4" d="M338.8,175.85c3.1,0.41,6.81,0.96,8.33,1.38c1.51,4.61,2.82,11.01,2.89,15.69
				C347.88,186.86,342.93,179.84,338.8,175.85 M388.21,174.2c-18.03-7.43-22.23,4.89-23.47,7.29c-9.91-15.41-23.6-17.96-23.81-18.03
				c1.65,2.75,2.96,4.68,5.57,11.84c-6.26-1.65-14.04-2.13-14.04-2.13s10.05,6.47,16.1,20.3c-11.29,5.3-20.37,4.89-31.38,5.23
				c2.48,1.24,22.02,12.73,43.49,4.54c8.4-3.03,14.73-8.81,20.58-16.24c3.72-4.95,5.78-8.88,16.52-13.28
				c1.03-0.41,0.96-1.58-0.55-1.31C396.83,172.46,390.76,173.51,388.21,174.2"/>
		</g>
	</g>
</g>
<g>
	<path class="st0" d="M346.22,172.35c21.06-11.85,34.84-27.33,30.76-34.57c-15.4-27.37-44.95-39.95-66.02-28.1
		c-21.06,11.85-25.66,43.64-10.26,71.01C304.78,187.93,325.16,184.2,346.22,172.35z"/>
	<path class="st3" d="M300.89,142.46c2.23-4.04,5-7.65,8.34-10.83c3.48-3.32,7.33-6.21,11.08-9.22c2.06-1.66,4.17-3.28,6.1-5.09
		c2.93-2.74,4.28-6.24,4.43-10.23c0.02-0.6,0.01-1.19-0.01-1.78c-6.96-0.42-13.76,0.95-19.85,4.37
		c-16.85,9.48-23.15,31.72-17.12,54.25c0.29-1.73,0.62-3.45,1.01-5.17C296.17,153.07,298.05,147.59,300.89,142.46z"/>
	<path class="st3" d="M346.22,172.35c15.11-8.5,26.47-18.87,30.18-26.72c-0.11-3.42-0.44-6.82-0.94-10.21
		c-0.02-0.11-0.04-0.21-0.05-0.32c-3.52-5.69-7.66-10.68-12.2-14.86c1.04,3.71,1.83,7.48,2.33,11.33c0.38,2.91,0.73,5.83,0.47,8.77
		c-0.49,5.62-2.19,10.87-5.19,15.65c-2.3,3.66-5.51,6.26-9.54,7.85c-3.25,1.28-6.67,1.8-10.09,2.34c-3.12,0.49-6.24,0.99-9.25,2.03
		c-4.34,1.5-7.81,4.13-10.43,7.89c-1.61,2.31-2.77,4.83-3.71,7.46C325.91,181.95,335.98,178.11,346.22,172.35z"/>
	<path class="st4" d="M307.78,184.27c0.07-2.75,0.43-5.46,1.26-8.13c0.93-2.98,2.06-5.87,3.59-8.59c1.22-2.18,2.68-4.19,4.45-5.98
		c3.19-3.22,7.07-5.22,11.41-6.32c3.46-0.87,6.96-1.55,10.44-2.35c2.3-0.53,4.53-1.27,6.61-2.39c3.42-1.85,5.96-4.55,7.72-8
		c1.43-2.79,2.29-5.78,2.87-8.85c0.65-3.47,1.05-6.97,0.52-10.49c-0.42-2.76-0.94-5.5-1.61-8.21c-0.11-0.46-0.24-0.91-0.35-1.37
		c-3.88-2.51-7.93-4.49-12.02-5.89c0.39,1.37,0.71,2.75,0.91,4.18c0.53,3.64,0.64,7.28-0.11,10.91c-0.66,3.16-2.1,5.87-4.6,7.96
		c-1.85,1.55-4,2.58-6.17,3.58c-4.24,1.95-8.51,3.82-12.7,5.88c-3.65,1.79-6.83,4.27-9.56,7.28c-3.04,3.35-5.32,7.17-7.02,11.34
		c-2.45,6-4,12.21-4.35,18.69c0.53,1.06,1.08,2.11,1.67,3.16C301.86,182.75,304.34,183.92,307.78,184.27z"/>
</g>
<ellipse class="st5" cx="191.88" cy="281.51" rx="22.54" ry="6.79"/>
<ellipse class="st5" cx="349.59" cy="281.51" rx="22.54" ry="6.79"/>
</svg>
